<svg xmlns="http://www.w3.org/2000/svg" viewBox="0 0 512 512">
  <rect width="512" height="512" fill="#FF6F00"/>
  <path fill="#ffffff" d="M176 128c0-35.3 28.7-64 64-64h32c35.3 0 64 28.7 64 64v32c0 35.3-28.7 64-64 64h-32c-35.3 0-64-28.7-64-64v-32zm-80 64c-35.3 0-64 28.7-64 64v32c0 35.3 28.7 64 64 64h32c35.3 0 64-28.7 64-64v-32c0-35.3-28.7-64-64-64H96zm256 0c-35.3 0-64 28.7-64 64v32c0 35.3 28.7 64 64 64h32c35.3 0 64-28.7 64-64v-32c0-35.3-28.7-64-64-64h-32zM96 352c-35.3 0-64 28.7-64 64v32c0 35.3 28.7 64 64 64h32c35.3 0 64-28.7 64-64v-32c0-35.3-28.7-64-64-64H96zm256 0c-35.3 0-64 28.7-64 64v32c0 35.3 28.7 64 64 64h32c35.3 0 64-28.7 64-64v-32c0-35.3-28.7-64-64-64h-32z"/>
  <circle cx="256" cy="320" r="100" fill="#ffffff"/>
</svg>
